<svg xmlns="http://www.w3.org/2000/svg" width="15" height="19" viewBox="0 0 15 19">
<path d="M14 7.8C14 14.2754 7.5 18 7.5 18C7.5 18 1 14.2754 1 7.8C1 5.99653 1.68482 4.26692 2.90381 2.99167C4.12279 1.71643 5.77609 1 7.5 1C9.22391 1 10.8772 1.71643 12.0962 2.99167C13.3152 4.26692 14 5.99653 14 7.8V7.8Z" stroke="#524DD0" stroke-width="2" stroke-linecap="round" stroke-linejoin="round" fill="#524DD0"/>
<path d="M10 7.5C10 8.16304 9.73661 8.79893 9.26777 9.26777C8.79893 9.73661 8.16304 10 7.5 10C6.83696 10 6.20107 9.73661 5.73223 9.26777C5.26339 8.79893 5 8.16304 5 7.5C5 6.83696 5.26339 6.20107 5.73223 5.73223C6.20107 5.26339 6.83696 5 7.5 5C8.16304 5 8.79893 5.26339 9.26777 5.73223C9.73661 6.20107 10 6.83696 10 7.5V7.5Z" fill="white"/>
</svg>